# xmcd
#
# Track frame offsets:
#	150
#	15704
#	32765
#	50728
#	67752
#	87508
#	106187
#	128476
#	155052
#	175854
#	191752
#	219621
#	234985
#
# Disc length: 3479 seconds
#
# Revision: 1
# Processed by: cddbd v1.5.2PL0 Copyright (c) Steve Scherf et al.
# Submitted via: audiograbber 1.83.01
#
DISCID=ab0d950d
DTITLE=Lightnin'Guy and the Mighty Gators - The banana Peel Sessions
DYEAR=2010
DGENRE=blues live
TTITLE0=Love Light Shine
TTITLE1=Soul Jivin'
TTITLE2=Fallin' For You
TTITLE3=Poison
TTITLE4=If You Walk With The Devil
TTITLE5=No Time To Waste
TTITLE6=Long Distance Shuffle
TTITLE7=Lovestrong
TTITLE8=To Be With You
TTITLE9=I Will Rise
TTITLE10=Me and My Blues
TTITLE11=Rock and Roll On My Radio
TTITLE12=Crazy 'Bout My Baby
EXTD=
EXTT0=
EXTT1=
EXTT2=
EXTT3=
EXTT4=
EXTT5=
EXTT6=
EXTT7=
EXTT8=
EXTT9=
EXTT10=
EXTT11=
EXTT12=
PLAYORDER=
